<svg width="34" height="36" viewBox="0 0 34 36" fill="none" xmlns="http://www.w3.org/2000/svg">
<path d="M30.9182 12.4067C32.1792 15.5445 32.3429 19.0164 31.3827 22.259C30.4225 25.5016 28.3947 28.3246 25.6285 30.2698C22.8622 32.2151 19.5198 33.1686 16.1435 32.9755C14.7201 32.8941 13.326 32.6109 12 32.1421M20.3334 3.375C17.2493 2.67201 14.0157 2.96109 11.0979 4.2099C7.98896 5.54053 5.42085 7.88268 3.81031 10.8563C3.53705 11.3608 3.29408 11.8785 3.08183 12.4067C2.04317 14.9912 1.74046 17.8257 2.22558 20.5914C2.40694 21.6254 2.69509 22.6309 3.08183 23.5932" stroke="#6A4BFF" stroke-width="2.5" stroke-linecap="round"/>
<circle cx="23.6667" cy="4.66658" r="3.33333" stroke="#6A4BFF" stroke-width="2.5"/>
<circle cx="8.66666" cy="31.3333" r="3.33333" stroke="#6A4BFF" stroke-width="2.5"/>
<path d="M12.6671 14.685L16.3959 13.2349C16.7845 13.0838 17.2155 13.0838 17.6041 13.2349L21.3329 14.685C21.7351 14.8414 22 15.2286 22 15.6602V17.2491C22 19.4755 20.9721 21.5772 19.2147 22.9441C17.912 23.9572 16.088 23.9572 14.7853 22.9441C13.0279 21.5772 12 19.4755 12 17.2491V15.6602C12 15.2286 12.2649 14.8414 12.6671 14.685Z" stroke="#6A4BFF" stroke-width="2.5" stroke-linecap="round" stroke-linejoin="round"/>
</svg>
